<?xml version="1.0" standalone="no"?>
<!DOCTYPE svg PUBLIC "-//W3C//DTD SVG 20010904//EN"
 "http://www.w3.org/TR/2001/REC-SVG-20010904/DTD/svg10.dtd">
<svg version="1.0" xmlns="http://www.w3.org/2000/svg"
 width="320.000000pt" height="320.000000pt" viewBox="0 0 320.000000 320.000000"
 preserveAspectRatio="xMidYMid meet">
<metadata>
Created by potrace 1.14, written by Peter Selinger 2001-2017
</metadata>
<g transform="translate(0.000000,320.000000) scale(0.100000,-0.100000)"
fill="#000000" stroke="none">
<path d="M1494 2805 c-7 -18 -65 -20 -95 -5 -15 9 -19 7 -19 -6 0 -16 -1 -16
-19 0 -17 15 -19 15 -25 1 -3 -9 -10 -13 -16 -10 -5 3 -10 2 -10 -3 0 -6 -8
-9 -17 -8 -10 0 -18 -6 -18 -14 -1 -8 -6 -14 -13 -12 -7 1 -12 -4 -12 -12 0
-16 -27 -29 -41 -20 -15 9 -39 -16 -32 -33 5 -12 1 -14 -16 -8 -16 5 -22 3
-20 -7 5 -37 -2 -49 -23 -46 -17 2 -22 -2 -20 -14 2 -12 -3 -15 -18 -11 -13 4
-20 0 -20 -10 0 -8 -7 -17 -15 -21 -8 -3 -15 -17 -15 -31 0 -14 -4 -25 -10
-25 -5 0 -10 -8 -10 -18 0 -10 -5 -23 -10 -28 -6 -6 -12 -24 -14 -40 -2 -16
-8 -42 -12 -59 -4 -16 -8 -39 -9 -50 -1 -11 -6 -28 -10 -38 -10 -24 -12 -346
-2 -421 7 -55 6 -58 -12 -53 -51 13 -75 -64 -46 -143 9 -25 21 -63 26 -85 6
-22 23 -60 38 -85 15 -25 33 -59 40 -77 7 -18 19 -38 27 -44 12 -10 14 -1 16
52 1 44 3 27 8 -51 7 -123 27 -199 68 -265 24 -37 25 -44 19 -148 -4 -62 -12
-116 -19 -124 -14 -18 -133 -79 -123 -64 8 13 -47 15 -60 2 -6 -5 -37 -16 -70
-26 -33 -9 -83 -30 -112 -46 -60 -34 -271 -113 -326 -123 -21 -4 -94 -34 -162
-66 -93 -43 -139 -72 -181 -112 -82 -77 -84 -84 -84 -253 l0 -145 1600 0 1600
0 0 76 c0 72 -2 80 -52 171 -28 53 -73 125 -100 160 -27 34 -53 74 -60 88 -12
26 -78 73 -140 98 -20 9 -68 33 -105 55 -70 41 -168 74 -333 112 -52 13 -115
33 -140 45 -25 13 -70 28 -100 34 -30 6 -66 14 -80 17 -22 7 -24 6 -11 -9 17
-21 8 -73 -25 -146 -29 -65 -143 -180 -226 -229 -92 -55 -191 -85 -294 -90
-104 -5 -130 4 -136 47 -7 47 4 56 74 57 35 0 69 2 75 2 9 2 11 17 8 52 -3 30
-1 50 5 50 5 0 18 18 28 39 19 39 19 40 1 68 -24 35 -24 88 -1 113 9 10 42 28
72 40 60 23 100 46 100 58 0 8 -32 22 -95 44 -49 16 -128 93 -120 118 3 9 -3
24 -14 34 -20 18 -22 53 -2 48 6 -1 11 2 11 8 0 5 7 10 15 10 14 0 20 17 16
48 -1 6 6 12 16 12 11 0 1 11 -27 30 -25 16 -51 30 -57 30 -7 0 -13 4 -13 9 0
4 39 11 88 14 87 6 175 -6 218 -30 20 -12 44 -2 44 18 0 15 -67 28 -152 31
-49 1 -88 6 -88 11 0 5 -6 4 -14 -2 -11 -9 -15 -7 -18 7 -3 11 -18 21 -36 25
-25 5 -30 10 -25 24 11 32 46 63 64 58 27 -9 17 63 -17 114 -20 31 -28 56 -28
85 1 23 2 84 3 137 2 66 -2 106 -12 130 -20 50 -75 109 -101 110 -22 1 -108
37 -91 38 6 1 4 5 -3 10 -10 6 -11 14 -4 27 17 34 31 87 26 95 -3 5 2 9 10 9
19 0 19 3 5 53 -9 35 -8 40 16 63 14 13 34 24 43 25 9 0 26 2 37 4 184 28 270
29 360 4 22 -6 55 -12 74 -14 48 -4 89 -49 106 -116 32 -127 46 -164 67 -182
13 -10 16 -16 8 -12 -8 4 -6 -1 5 -9 11 -9 20 -26 21 -39 1 -35 15 -68 25 -62
5 3 7 0 5 -7 -11 -35 -15 -82 -6 -68 7 12 12 12 22 2 6 -6 16 -12 21 -12 9 0
4 333 -6 388 -13 71 -86 204 -110 199 -6 -1 -14 19 -18 48 -8 60 -27 105 -45
105 -7 0 -15 9 -19 19 -3 11 -25 36 -48 56 -23 19 -59 52 -79 72 -21 20 -38
32 -38 27 0 -6 5 -15 12 -22 19 -19 1 -14 -40 11 -20 12 -57 24 -81 25 -24 1
-75 14 -114 27 -83 29 -76 29 -83 10z m-130 -857 c26 -11 62 -56 52 -65 -2 -3
-15 2 -28 11 -28 20 -49 21 -22 1 23 -18 16 -18 -42 -4 -27 7 -41 15 -34 19 8
5 2 10 -14 14 -14 3 -26 13 -26 21 0 19 76 21 114 3z m49 -150 c-6 -11 -125
-9 -143 2 -8 5 -10 10 -5 11 48 4 72 12 85 28 14 17 16 17 41 -8 15 -14 25
-29 22 -33z m-11 -55 c3 -35 -2 -55 -27 -107 -32 -67 -80 -129 -104 -133 -20
-3 -86 48 -102 79 -18 34 -31 115 -20 122 4 3 23 8 41 11 18 3 38 9 44 13 9 5
91 21 159 31 4 1 8 -7 9 -16z m-370 -119 c-6 -32 -8 -28 -15 26 -5 41 -4 43 7
21 7 -12 11 -34 8 -47z m5 -86 c-2 -13 -4 -5 -4 17 -1 22 1 32 4 23 2 -10 2
-28 0 -40z m243 -278 c0 -5 -2 -10 -4 -10 -3 0 -8 5 -11 10 -3 6 -1 10 4 10 6
0 11 -4 11 -10z"/>
<path d="M1745 2037 c-15 -5 -25 -16 -25 -28 0 -13 4 -18 12 -13 6 4 27 7 46
6 20 -1 42 4 50 11 8 6 17 11 19 10 8 -6 23 -2 23 6 0 12 -94 18 -125 8z"/>
<path d="M1746 1887 c-14 -14 -26 -23 -28 -22 -2 2 -4 -10 -5 -26 l-2 -30 62
6 c79 8 87 11 87 30 0 9 -4 13 -10 10 -5 -3 -10 -1 -10 4 0 16 46 13 60 -4 7
-8 22 -15 33 -15 20 0 21 0 1 15 -16 13 -50 24 -146 51 -10 3 -28 -5 -42 -19z"/>
<path d="M2140 1815 c0 -8 4 -15 9 -15 5 0 11 7 15 15 3 9 0 15 -9 15 -8 0
-15 -7 -15 -15z"/>
<path d="M2121 1775 c0 -35 1 -37 10 -17 6 15 5 30 -1 40 -7 13 -9 8 -9 -23z"/>
<path d="M1735 1790 c-9 -14 39 -30 88 -29 l42 0 -35 13 c-59 22 -88 27 -95
16z"/>
<path d="M2217 1758 c7 -39 23 -61 23 -32 0 30 -11 64 -21 64 -5 0 -6 -15 -2
-32z"/>
<path d="M1631 1541 c-19 -12 -6 -28 30 -36 39 -9 47 0 24 25 -20 22 -33 24
-54 11z"/>
</g>
</svg>
